<?xml version="1.0" standalone="no"?><!DOCTYPE svg PUBLIC "-//W3C//DTD SVG 1.1//EN" "http://www.w3.org/Graphics/SVG/1.1/DTD/svg11.dtd"><svg xmlns:xlink="http://www.w3.org/1999/xlink" version="1.1" class="highcharts-root" style="font-family:Arial;font-size:12px;color:#333;font-weight:normal;font-style:normal;fill:#333;" xmlns="http://www.w3.org/2000/svg" width="600" height="400" viewBox="0 0 600 400"><desc>Created with Highcharts 8.0.4</desc><defs><clipPath id="highcharts-gdk29g6-267-"><rect x="0" y="0" width="511" height="247" fill="none"></rect></clipPath><clipPath id="highcharts-gdk29g6-355-"><rect x="0" y="0" width="511" height="247" fill="none"></rect></clipPath></defs><rect fill="#ffffff" class="highcharts-background" x="0" y="0" width="600" height="400" rx="0" ry="0"></rect><rect fill="none" class="highcharts-plot-background" x="79" y="45" width="511" height="247"></rect><g class="highcharts-pane-group" data-z-index="0"></g><g class="highcharts-grid highcharts-xaxis-grid" data-z-index="1"><path fill="none" data-z-index="1" class="highcharts-grid-line" d="M 81.5 45 L 81.5 292" opacity="1"></path><path fill="none" data-z-index="1" class="highcharts-grid-line" d="M 104.5 45 L 104.5 292" opacity="1"></path><path fill="none" data-z-index="1" class="highcharts-grid-line" d="M 128.5 45 L 128.5 292" opacity="1"></path><path fill="none" data-z-index="1" class="highcharts-grid-line" d="M 151.5 45 L 151.5 292" opacity="1"></path><path fill="none" data-z-index="1" class="highcharts-grid-line" d="M 175.5 45 L 175.5 292" opacity="1"></path><path fill="none" data-z-index="1" class="highcharts-grid-line" d="M 198.5 45 L 198.5 292" opacity="1"></path><path fill="none" data-z-index="1" class="highcharts-grid-line" d="M 222.5 45 L 222.5 292" opacity="1"></path><path fill="none" data-z-index="1" class="highcharts-grid-line" d="M 245.5 45 L 245.5 292" opacity="1"></path><path fill="none" data-z-index="1" class="highcharts-grid-line" d="M 269.5 45 L 269.5 292" opacity="1"></path><path fill="none" data-z-index="1" class="highcharts-grid-line" d="M 292.5 45 L 292.5 292" opacity="1"></path><path fill="none" data-z-index="1" class="highcharts-grid-line" d="M 316.5 45 L 316.5 292" opacity="1"></path><path fill="none" data-z-index="1" class="highcharts-grid-line" d="M 339.5 45 L 339.5 292" opacity="1"></path><path fill="none" data-z-index="1" class="highcharts-grid-line" d="M 363.5 45 L 363.5 292" opacity="1"></path><path fill="none" data-z-index="1" class="highcharts-grid-line" d="M 386.5 45 L 386.5 292" opacity="1"></path><path fill="none" data-z-index="1" class="highcharts-grid-line" d="M 410.5 45 L 410.5 292" opacity="1"></path><path fill="none" data-z-index="1" class="highcharts-grid-line" d="M 433.5 45 L 433.5 292" opacity="1"></path><path fill="none" data-z-index="1" class="highcharts-grid-line" d="M 457.5 45 L 457.5 292" opacity="1"></path><path fill="none" data-z-index="1" class="highcharts-grid-line" d="M 480.5 45 L 480.5 292" opacity="1"></path><path fill="none" data-z-index="1" class="highcharts-grid-line" d="M 504.5 45 L 504.5 292" opacity="1"></path><path fill="none" data-z-index="1" class="highcharts-grid-line" d="M 527.5 45 L 527.5 292" opacity="1"></path><path fill="none" data-z-index="1" class="highcharts-grid-line" d="M 551.5 45 L 551.5 292" opacity="1"></path><path fill="none" data-z-index="1" class="highcharts-grid-line" d="M 574.5 45 L 574.5 292" opacity="1"></path></g><g class="highcharts-grid highcharts-yaxis-grid" data-z-index="1"><path fill="none" stroke="#e6e6e6" stroke-width="1" data-z-index="1" class="highcharts-grid-line" d="M 79 292.5 L 590 292.5" opacity="1"></path><path fill="none" stroke="#e6e6e6" stroke-width="1" data-z-index="1" class="highcharts-grid-line" d="M 79 230.5 L 590 230.5" opacity="1"></path><path fill="none" stroke="#e6e6e6" stroke-width="1" data-z-index="1" class="highcharts-grid-line" d="M 79 169.5 L 590 169.5" opacity="1"></path><path fill="none" stroke="#e6e6e6" stroke-width="1" data-z-index="1" class="highcharts-grid-line" d="M 79 107.5 L 590 107.5" opacity="1"></path><path fill="none" stroke="#e6e6e6" stroke-width="1" data-z-index="1" class="highcharts-grid-line" d="M 79 44.5 L 590 44.5" opacity="1"></path></g><rect fill="none" class="highcharts-plot-border" data-z-index="1" x="79" y="45" width="511" height="247"></rect><g class="highcharts-axis highcharts-xaxis" data-z-index="2"><path fill="none" class="highcharts-axis-line" stroke="#ccd6eb" stroke-width="1" data-z-index="7" d="M 79 292.5 L 590 292.5"></path></g><g class="highcharts-axis highcharts-yaxis" data-z-index="2"><text x="30.140625" data-z-index="7" text-anchor="middle" transform="translate(0,0) rotate(270 30.140625 168.5)" class="highcharts-axis-title" style="color:#666666;font-family:Arial;font-size:18px;font-weight:normal;font-style:normal;fill:#666666;" y="168.5"><tspan>Người</tspan></text><path fill="none" class="highcharts-axis-line" data-z-index="7" d="M 79 45 L 79 292"></path></g><g class="highcharts-series-group" data-z-index="3"><g data-z-index="0.1" class="highcharts-series highcharts-series-0 highcharts-line-series highcharts-color-0" transform="translate(79,45) scale(1 1)" clip-path="url(#highcharts-gdk29g6-355-)"><path fill="none" d="M 2.9367816091954 246.99506 L 8.8103448275862 246.99506 L 14.683908045977 246.99506 L 20.557471264368 246.993825 L 26.431034482759 246.99012 L 32.304597701149 246.98765 L 38.17816091954 246.98518 L 44.051724137931 246.98518 L 49.925287356322 246.98518 L 55.798850574713 246.98518 L 61.672413793103 246.983945 L 67.545977011494 246.983945 L 73.419540229885 246.98271 L 79.293103448276 246.98271 L 85.166666666667 246.98024 L 91.040229885057 246.98024 L 96.913793103448 246.98024 L 102.78735632184 246.98024 L 108.66091954023 246.98024 L 114.53448275862 246.98024 L 120.40804597701 246.98024 L 126.2816091954 246.98024 L 132.15517241379 246.98024 L 138.02873563218 246.98024 L 143.90229885057 246.98024 L 149.77586206897 246.98024 L 155.64942528736 246.98024 L 161.52298850575 246.98024 L 167.39655172414 246.979005 L 173.27011494253 246.966655 L 179.14367816092 246.94319 L 185.01724137931 246.94072 L 190.8908045977 246.902435 L 196.76436781609 246.83945 L 202.63793103448 246.803635 L 208.51149425287 246.75794 L 214.38505747126 246.67643 L 220.25862068966 246.40473 L 226.13218390805 246.17255 L 232.00574712644 246.013235 L 237.87931034483 245.7156 L 243.75287356322 245.54764 L 249.62643678161 245.200605 L 255.5 244.64362 L 261.37356321839 244.43367 L 267.24712643678 242.461375 L 273.12068965517 241.337525 L 278.99425287356 239.843175 L 284.86781609195 238.01908 L 290.74137931034 235.56760500000001 L 296.61494252874 231.776155 L 302.48850574713 228.0798 L 308.36206896552 222.48772 L 314.23563218391 219.566945 L 320.1091954023 216.281845 L 325.98275862069 211.11584 L 331.85632183908 206.26229 L 337.72988505747 200.906095 L 343.60344827586 192.73657 L 349.47701149425 184.174315 L 355.35057471264 175.74667499999998 L 361.22413793103 170.312675 L 367.09770114943 164.39702499999999 L 372.97126436782 158.31712 L 378.84482758621 150.82808 L 384.7183908046 142.27940999999998 L 390.59195402299 134.418635 L 396.46551724138 128.32638 L 402.33908045977 123.348095 L 408.21264367816 119.33311 L 414.08620689655 114.03619499999999 L 419.95977011494 107.07944 L 425.83333333333 101.04646500000001 L 431.70689655172 96.11881500000001 L 437.58045977011 92.73862 L 443.45402298851 89.10031000000001 L 449.3275862069 86.36108000000002 L 455.20114942529 84.771635 L 461.07471264368 80.58004500000001 L 466.94827586207 76.94297 L 472.82183908046 72.374705 L 478.69540229885 69.97263000000001 L 484.56896551724 67.69775999999999 L 490.44252873563 65.37472500000001 L 496.31609195402 63.860614999999996 L 502.18965517241 60.94972000000001 L 508.0632183908 57.885684999999995" class="highcharts-graph" data-z-index="1" stroke="#7cb5ec" stroke-width="2" stroke-linejoin="round" stroke-linecap="round"></path></g><g data-z-index="0.1" class="highcharts-markers highcharts-series-0 highcharts-line-series highcharts-color-0" transform="translate(79,45) scale(1 1)" clip-path="none"></g><g data-z-index="0.1" class="highcharts-series highcharts-series-1 highcharts-line-series highcharts-color-1" transform="translate(79,45) scale(1 1)" clip-path="url(#highcharts-gdk29g6-355-)"><path fill="none" d="M 243.75287356322 246.99753 L 249.62643678161 246.99753 L 255.5 246.996295 L 261.37356321839 246.996295 L 267.24712643678 246.991355 L 273.12068965517 246.988885 L 278.99425287356 246.986415 L 284.86781609195 246.979005 L 290.74137931034 246.97036 L 296.61494252874 246.96542 L 302.48850574713 246.94566 L 308.36206896552 246.917255 L 314.23563218391 246.89626 L 320.1091954023 246.88391 L 325.98275862069 246.848095 L 331.85632183908 246.806105 L 337.72988505747 246.74559 L 343.60344827586 246.670255 L 349.47701149425 246.57763 L 355.35057471264 246.465245 L 361.22413793103 246.341745 L 367.09770114943 246.203425 L 372.97126436782 246.042875 L 378.84482758621 245.8638 L 384.7183908046 245.632855 L 390.59195402299 245.425375 L 396.46551724138 245.21666 L 402.33908045977 245.04376 L 408.21264367816 244.76465 L 414.08620689655 244.51024 L 419.95977011494 244.098985 L 425.83333333333 243.780355 L 431.70689655172 243.582755 L 437.58045977011 243.62104 L 443.45402298851 243.26783 L 449.3275862069 243.05541 L 455.20114942529 242.93191 L 461.07471264368 242.30206 L 466.94827586207 241.99578 L 472.82183908046 241.62528 L 478.69540229885 241.493135 L 484.56896551724 241.33629 L 490.44252873563 240.99543 L 496.31609195402 240.784245 L 502.18965517241 240.480435 L 508.0632183908 240.114875" class="highcharts-graph" data-z-index="1" stroke="#d32f2f" stroke-width="2" stroke-linejoin="round" stroke-linecap="round"></path></g><g data-z-index="0.1" class="highcharts-markers highcharts-series-1 highcharts-line-series highcharts-color-1" transform="translate(79,45) scale(1 1)" clip-path="none"></g><g data-z-index="0.1" class="highcharts-series highcharts-series-2 highcharts-line-series highcharts-color-2" transform="translate(79,45) scale(1 1)" clip-path="url(#highcharts-gdk29g6-355-)"><path fill="none" d="M 96.913793103448 246.998765 L 102.78735632184 246.998765 L 108.66091954023 246.998765 L 114.53448275862 246.998765 L 120.40804597701 246.998765 L 126.2816091954 246.98518 L 132.15517241379 246.98518 L 138.02873563218 246.98518 L 143.90229885057 246.98271 L 149.77586206897 246.98271 L 155.64942528736 246.98271 L 161.52298850575 246.98271 L 167.39655172414 246.98271 L 173.27011494253 246.981475 L 179.14367816092 246.98024 L 185.01724137931 246.98024 L 190.8908045977 246.98024 L 196.76436781609 246.98024 L 202.63793103448 246.98024 L 208.51149425287 246.98024 L 214.38505747126 246.98024 L 220.25862068966 246.98024 L 226.13218390805 246.979005 L 232.00574712644 246.97777 L 237.87931034483 246.97777 L 243.75287356322 246.97777 L 249.62643678161 246.97777 L 255.5 246.969125 L 261.37356321839 246.969125 L 267.24712643678 246.94319 L 273.12068965517 246.94319 L 278.99425287356 246.94319 L 284.86781609195 246.917255 L 290.74137931034 246.917255 L 296.61494252874 246.870325 L 302.48850574713 246.860445 L 308.36206896552 246.7777 L 314.23563218391 246.712245 L 320.1091954023 246.67149 L 325.98275862069 246.67149 L 331.85632183908 242.99489499999999 L 337.72988505747 242.619455 L 343.60344827586 239.993845 L 349.47701149425 238.77737 L 355.35057471264 236.52596499999999 L 361.22413793103 235.624415 L 367.09770114943 230.3275 L 372.97126436782 227.1165 L 378.84482758621 223.9055 L 384.7183908046 219.2866 L 390.59195402299 216.649875 L 396.46551724138 214.39600000000002 L 402.33908045977 211.5555 L 408.21264367816 211.5555 L 414.08620689655 202.439965 L 419.95977011494 189.8195 L 425.83333333333 182.277355 L 431.70689655172 180.417445 L 437.58045977011 176.111 L 443.45402298851 172.52949999999998 L 449.3275862069 167.5895 L 455.20114942529 162.773 L 461.07471264368 157.339 L 466.94827586207 151.905 L 472.82183908046 144.35421 L 478.69540229885 141.531 L 484.56896551724 138.32 L 490.44252873563 133.9975 L 496.31609195402 129.428 L 502.18965517241 124.241 L 508.0632183908 119.4245" class="highcharts-graph" data-z-index="1" stroke="#90ed7d" stroke-width="2" stroke-linejoin="round" stroke-linecap="round"></path></g><g data-z-index="0.1" class="highcharts-markers highcharts-series-2 highcharts-line-series highcharts-color-2" transform="translate(79,45) scale(1 1)" clip-path="none"></g></g><text x="300" text-anchor="middle" class="highcharts-title" data-z-index="4" style="color:#333333;font-size:18px;font-family:Arial;fill:#333333;" y="24"><tspan>Covid-19 ở Đức</tspan></text><text x="300" text-anchor="middle" class="highcharts-subtitle" data-z-index="4" style="color:#666666;font-family:Arial;font-size:12px;fill:#666666;" y="44"></text><text x="10" text-anchor="start" class="highcharts-caption" data-z-index="4" style="color:#666666;fill:#666666;" y="397"></text><g class="highcharts-legend" data-z-index="7" transform="translate(195,360)"><rect fill="none" class="highcharts-legend-box" rx="0" ry="0" x="0" y="0" width="209" height="25" visibility="visible"></rect><g data-z-index="1"><g><g class="highcharts-legend-item highcharts-line-series highcharts-color-0 highcharts-series-0" data-z-index="1" transform="translate(8,3)"><path fill="none" d="M 0 11 L 16 11" class="highcharts-graph" stroke="#7cb5ec" stroke-width="2"></path><path fill="#7cb5ec" d="M 8 15 A 4 4 0 1 1 8.003999999333336 14.999998000000167 Z" class="highcharts-point" opacity="1"></path><text x="21" style="color:#333333;cursor:pointer;font-size:12px;font-weight:bold;fill:#333333;" text-anchor="start" data-z-index="2" y="15"><tspan>Nhiễm</tspan></text></g><g class="highcharts-legend-item highcharts-line-series highcharts-color-1 highcharts-series-1" data-z-index="1" transform="translate(85.6875,3)"><path fill="none" d="M 0 11 L 16 11" class="highcharts-graph" stroke="#d32f2f" stroke-width="2"></path><path fill="#d32f2f" d="M 8 7 L 12 11 8 15 4 11 Z" class="highcharts-point" opacity="1"></path><text x="21" y="15" style="color:#333333;cursor:pointer;font-size:12px;font-weight:bold;fill:#333333;" text-anchor="start" data-z-index="2"><tspan>Chết</tspan></text></g><g class="highcharts-legend-item highcharts-line-series highcharts-color-2 highcharts-series-2" data-z-index="1" transform="translate(153.359375,3)"><path fill="none" d="M 0 11 L 16 11" class="highcharts-graph" stroke="#90ed7d" stroke-width="2"></path><path fill="#90ed7d" d="M 4 7 L 12 7 12 15 4 15 Z" class="highcharts-point" opacity="1"></path><text x="21" y="15" style="color:#333333;cursor:pointer;font-size:12px;font-weight:bold;fill:#333333;" text-anchor="start" data-z-index="2"><tspan>Khỏi</tspan></text></g></g></g></g><g class="highcharts-axis-labels highcharts-xaxis-labels" data-z-index="7"><text x="84.52950647354567" style="color:#666666;cursor:default;font-size:11px;fill:#666666;" text-anchor="end" transform="translate(0,0) rotate(-45 84.52950647354567 308)" y="308" opacity="1">28/01/2020</text><text x="155.0122650942407" style="color:#666666;cursor:default;font-size:11px;fill:#666666;" text-anchor="end" transform="translate(0,0) rotate(-45 155.0122650942407 308)" y="308" opacity="1">09-02-2020</text><text x="225.49502371492068" style="color:#666666;cursor:default;font-size:11px;fill:#666666;" text-anchor="end" transform="translate(0,0) rotate(-45 225.49502371492068 308)" y="308" opacity="1">21/02/2020</text><text x="295.97778233561064" style="color:#666666;cursor:default;font-size:11px;fill:#666666;" text-anchor="end" transform="translate(0,0) rotate(-45 295.97778233561064 308)" y="308" opacity="1">04-03-2020</text><text x="366.46054095630063" style="color:#666666;cursor:default;font-size:11px;fill:#666666;" text-anchor="end" transform="translate(0,0) rotate(-45 366.46054095630063 308)" y="308" opacity="1">16/03/2020</text><text x="436.9432995769907" style="color:#666666;cursor:default;font-size:11px;fill:#666666;" text-anchor="end" transform="translate(0,0) rotate(-45 436.9432995769907 308)" y="308" opacity="1">28/03/2020</text><text x="507.4260581976807" style="color:#666666;cursor:default;font-size:11px;fill:#666666;" text-anchor="end" transform="translate(0,0) rotate(-45 507.4260581976807 308)" y="308" opacity="1">09-04-2020</text><text x="577.9088168183706" style="color:#666666;cursor:default;font-size:11px;fill:#666666;" text-anchor="end" transform="translate(0,0) rotate(-45 577.9088168183706 308)" y="308" opacity="1">21/04/2020</text><text x="108.02375934711067" style="color:#666666;cursor:default;font-size:11px;fill:#666666;" text-anchor="end" transform="translate(0,0) rotate(-45 108.02375934711067 308)" y="308" opacity="1">01-02-2020</text><text x="131.5180122206707" style="color:#666666;cursor:default;font-size:11px;fill:#666666;" text-anchor="end" transform="translate(0,0) rotate(-45 131.5180122206707 308)" y="308" opacity="1">05-02-2020</text><text x="178.50651796780068" style="color:#666666;cursor:default;font-size:11px;fill:#666666;" text-anchor="end" transform="translate(0,0) rotate(-45 178.50651796780068 308)" y="308" opacity="1">13/02/2020</text><text x="202.0007708413607" style="color:#666666;cursor:default;font-size:11px;fill:#666666;" text-anchor="end" transform="translate(0,0) rotate(-45 202.0007708413607 308)" y="308" opacity="1">17/02/2020</text><text x="248.9892765884907" style="color:#666666;cursor:default;font-size:11px;fill:#666666;" text-anchor="end" transform="translate(0,0) rotate(-45 248.9892765884907 308)" y="308" opacity="1">25/02/2020</text><text x="272.4835294620507" style="color:#666666;cursor:default;font-size:11px;fill:#666666;" text-anchor="end" transform="translate(0,0) rotate(-45 272.4835294620507 308)" y="308" opacity="1">29/02/2020</text><text x="319.47203520918066" style="color:#666666;cursor:default;font-size:11px;fill:#666666;" text-anchor="end" transform="translate(0,0) rotate(-45 319.47203520918066 308)" y="308" opacity="1">08-03-2020</text><text x="342.9662880827407" style="color:#666666;cursor:default;font-size:11px;fill:#666666;" text-anchor="end" transform="translate(0,0) rotate(-45 342.9662880827407 308)" y="308" opacity="1">12-03-2020</text><text x="389.95479382987065" style="color:#666666;cursor:default;font-size:11px;fill:#666666;" text-anchor="end" transform="translate(0,0) rotate(-45 389.95479382987065 308)" y="308" opacity="1">20/03/2020</text><text x="413.44904670343067" style="color:#666666;cursor:default;font-size:11px;fill:#666666;" text-anchor="end" transform="translate(0,0) rotate(-45 413.44904670343067 308)" y="308" opacity="1">24/03/2020</text><text x="460.43755245056064" style="color:#666666;cursor:default;font-size:11px;fill:#666666;" text-anchor="end" transform="translate(0,0) rotate(-45 460.43755245056064 308)" y="308" opacity="1">01-04-2020</text><text x="483.93180532412066" style="color:#666666;cursor:default;font-size:11px;fill:#666666;" text-anchor="end" transform="translate(0,0) rotate(-45 483.93180532412066 308)" y="308" opacity="1">05-04-2020</text><text x="530.9203110712507" style="color:#666666;cursor:default;font-size:11px;fill:#666666;" text-anchor="end" transform="translate(0,0) rotate(-45 530.9203110712507 308)" y="308" opacity="1">13/04/2020</text><text x="554.4145639448107" style="color:#666666;cursor:default;font-size:11px;fill:#666666;" text-anchor="end" transform="translate(0,0) rotate(-45 554.4145639448107 308)" y="308" opacity="1">17/04/2020</text></g><g class="highcharts-axis-labels highcharts-yaxis-labels" data-z-index="7"><text x="64" style="color:#666666;cursor:default;font-size:11px;fill:#666666;" text-anchor="end" transform="translate(0,0)" y="297" opacity="1">0</text><text x="64" style="color:#666666;cursor:default;font-size:11px;fill:#666666;" text-anchor="end" transform="translate(0,0)" y="235" opacity="1">50k</text><text x="64" style="color:#666666;cursor:default;font-size:11px;fill:#666666;" text-anchor="end" transform="translate(0,0)" y="174" opacity="1">100k</text><text x="64" style="color:#666666;cursor:default;font-size:11px;fill:#666666;" text-anchor="end" transform="translate(0,0)" y="112" opacity="1">150k</text><text x="64" style="color:#666666;cursor:default;font-size:11px;fill:#666666;" text-anchor="end" transform="translate(0,0)" y="50" opacity="1">200k</text></g><text x="590" class="highcharts-credits" text-anchor="end" data-z-index="8" style="cursor:pointer;color:#999999;display:none;fill:#999999;" y="395">VnExpress</text></svg>